# xmcd
#
# Track frame offsets: 
#        150
#        10578
#        25594
#        37459
#        49452
#        58508
#        70200
#        85367
#        96266
#        108898
#        122649
#        137758
#        152840
#        191695
#        205681
#        222426
#        236718
#        250065
#        271542
#        287057
#
# Disc length: 4126 seconds
#
# Revision: 1
# Processed by: cddbd v1.5.2PL0 Copyright (c) Steve Scherf et al.
# Submitted via: ExactAudioCopyFreeDBPlugin 1.0
#
DISCID=20101c14
DTITLE=Various Artist - Love Train:  The Sound Of Philadelphia [box s
DTITLE=et]
DYEAR=2008
DGENRE=Soul
TTITLE0=Soul Survivors - Expressway (To Your Heart)
TTITLE1=The Delfonics - La-La - Means I Love You
TTITLE2=The Intruders - Cowboys to Girls
TTITLE3=Jerry Butler - Hey, Western Union Man
TTITLE4=The Delfonics - Ready or Not Here I Come (Can't Hide from Love
TTITLE4=)
TTITLE5=Jerry Butler - Only the Strong Survive
TTITLE6=The Delfonics - Didn't I Blow Your Mind
TTITLE7=Dusty Springfield - Brand New Me
TTITLE8=Wilson Pickett - Don't Let the Green Grass Fool You
TTITLE9=The Ebonys - You're the Reason Why
TTITLE10=Joe Simon - Drowning in the Sea of Love
TTITLE11=The Stylistics - I'm Stone in Love with You
TTITLE12=Harold Melvin and The Blue Notes - I Miss You
TTITLE13=The O'Jays - Back Stabbers
TTITLE14=The O'Jays - Sunshine
TTITLE15=The Spinners - I'll Be Around
TTITLE16=Johnny Williams - Slow Motion (Pt. 1)
TTITLE17=Billy Paul - Me and Mrs. Jones
TTITLE18=Harold Melvin and The Blue Notes - If You Don't Know Me By Now
TTITLE19=The Future - Love is Here
EXTD=
EXTT0=
EXTT1=
EXTT2=
EXTT3=
EXTT4=
EXTT5=
EXTT6=
EXTT7=
EXTT8=
EXTT9=
EXTT10=
EXTT11=
EXTT12=
EXTT13=
EXTT14=
EXTT15=
EXTT16=
EXTT17=
EXTT18=
EXTT19=
PLAYORDER=
